<svg xmlns="http://www.w3.org/2000/svg" xmlns:xlink="http://www.w3.org/1999/xlink" version="1.1" width="1228.251pt" height="510.89pt" viewBox="0 0 1228.251 510.89">
<rect class="makeyourtree-background" x="0" y="0" width="1228.251" height="510.89" fill="#ffffff"/>
<g class="makeyourtree-branches">
<g transform="translate(0.6 44.6)">
<path d="M24 177.062L24 87.75M24 87.75L154.982 87.75M154.982 87.75L154.982 47.5M154.982 47.5L273.328 47.5M273.328 47.5L273.328 32M273.328 32L284.307 32M273.328 47.5L273.328 63M273.328 63L808.779 63M808.779 63L808.779 48M808.779 48L838.264 48M808.779 63L808.779 78M808.779 78L839.758 78M839.758 78L839.758 64M839.758 64L846.824 64M839.758 78L839.758 92M839.758 92L869.569 92M869.569 92L869.569 80M869.569 80L892.178 80M869.569 92L869.569 104M869.569 104L889.325 104M889.325 104L889.325 96M889.325 96L920.848 96M889.325 104L889.325 112M889.325 112L924 112M154.982 87.75L154.982 128M154.982 128L163.651 128M24 177.062L24 266.375M24 266.375L95.66 266.375M95.66 266.375L95.66 174M95.66 174L297.025 174M297.025 174L297.025 144M297.025 144L315.748 144M297.025 174L297.025 204M297.025 204L308.248 204M308.248 204L308.248 184M308.248 184L433.578 184M433.578 184L433.578 168M433.578 168L549.206 168M549.206 168L549.206 160M549.206 160L681.683 160M549.206 168L549.206 176M549.206 176L590.403 176M433.578 184L433.578 200M433.578 200L555.973 200M555.973 200L555.973 192M555.973 192L620.975 192M555.973 200L555.973 208M555.973 208L573.011 208M308.248 204L308.248 224M308.248 224L333.004 224M95.66 266.375L95.66 358.75M95.66 358.75L101.475 358.75M101.475 358.75L101.475 317.5M101.475 317.5L149.71 317.5M149.71 317.5L149.71 275M149.71 275L269.632 275M269.632 275L269.632 248M269.632 248L296.834 248M296.834 248L296.834 240M296.834 240L402.517 240M296.834 248L296.834 256M296.834 256L306.753 256M269.632 275L269.632 302M269.632 302L521.325 302M521.325 302L521.325 284M521.325 284L598.447 284M598.447 284L598.447 272M598.447 272L619.344 272M598.447 284L598.447 296M598.447 296L756.142 296M756.142 296L756.142 288M756.142 288L762.881 288M756.142 296L756.142 304M756.142 304L827.992 304M521.325 302L521.325 320M521.325 320L528.798 320M149.71 317.5L149.71 360M149.71 360L209.603 360M209.603 360L209.603 344M209.603 344L328.411 344M328.411 344L328.411 336M328.411 336L336.319 336M328.411 344L328.411 352M328.411 352L336.401 352M209.603 360L209.603 376M209.603 376L251.126 376M251.126 376L251.126 368M251.126 368L265.149 368M251.126 376L251.126 384M251.126 384L275.339 384M101.475 358.75L101.475 400M101.475 400L140.444 400" fill="none" stroke="#33333a" stroke-width="1.2" stroke-linejoin="round"/>
</g>
</g>
<g class="makeyourtree-tracks">
<g transform="translate(0.6 44.6)">
<path d="M995.54 26.24L1007.06 26.24L1007.06 37.76L995.54 37.76Z" fill="#0072b2"/>
<path d="M1015.54 26.24L1027.06 26.24L1027.06 37.76L1015.54 37.76Z" fill="#e69f00"/>
<path d="M1035.54 26.24L1047.06 26.24L1047.06 37.76L1035.54 37.76Z" fill="none" stroke="#009e73" stroke-width="1.382" stroke-linecap="round" stroke-linejoin="round"/>
<path d="M1055.54 26.24L1067.06 26.24L1067.06 37.76L1055.54 37.76Z" fill="none" stroke="#d55e00" stroke-width="1.382" stroke-linecap="round" stroke-linejoin="round"/>
<path d="M1095.54 26.24L1107.06 26.24L1107.06 37.76L1095.54 37.76Z" fill="#56b4e9"/>
<path d="M995.54 42.24L1007.06 42.24L1007.06 53.76L995.54 53.76Z" fill="#0072b2"/>
<path d="M1015.54 42.24L1027.06 42.24L1027.06 53.76L1015.54 53.76Z" fill="none" stroke="#e69f00" stroke-width="1.382" stroke-linecap="round" stroke-linejoin="round"/>
<path d="M1035.54 42.24L1047.06 42.24L1047.06 53.76L1035.54 53.76Z" fill="#009e73"/>
<path d="M1055.54 42.24L1067.06 42.24L1067.06 53.76L1055.54 53.76Z" fill="#d55e00"/>
<path d="M1075.54 42.24L1087.06 42.24L1087.06 53.76L1075.54 53.76Z" fill="none" stroke="#cc79a7" stroke-width="1.382" stroke-linecap="round" stroke-linejoin="round"/>
<path d="M1095.54 42.24L1107.06 42.24L1107.06 53.76L1095.54 53.76Z" fill="none" stroke="#56b4e9" stroke-width="1.382" stroke-linecap="round" stroke-linejoin="round"/>
<path d="M995.54 58.24L1007.06 58.24L1007.06 69.76L995.54 69.76Z" fill="none" stroke="#0072b2" stroke-width="1.382" stroke-linecap="round" stroke-linejoin="round"/>
<path d="M1035.54 58.24L1047.06 58.24L1047.06 69.76L1035.54 69.76Z" fill="none" stroke="#009e73" stroke-width="1.382" stroke-linecap="round" stroke-linejoin="round"/>
<path d="M1055.54 58.24L1067.06 58.24L1067.06 69.76L1055.54 69.76Z" fill="#d55e00"/>
<path d="M1095.54 58.24L1107.06 58.24L1107.06 69.76L1095.54 69.76Z" fill="none" stroke="#56b4e9" stroke-width="1.382" stroke-linecap="round" stroke-linejoin="round"/>
<path d="M995.54 74.24L1007.06 74.24L1007.06 85.76L995.54 85.76Z" fill="#0072b2"/>
<path d="M1015.54 74.24L1027.06 74.24L1027.06 85.76L1015.54 85.76Z" fill="#e69f00"/>
<path d="M1035.54 74.24L1047.06 74.24L1047.06 85.76L1035.54 85.76Z" fill="#009e73"/>
<path d="M1055.54 74.24L1067.06 74.24L1067.06 85.76L1055.54 85.76Z" fill="none" stroke="#d55e00" stroke-width="1.382" stroke-linecap="round" stroke-linejoin="round"/>
<path d="M1075.54 74.24L1087.06 74.24L1087.06 85.76L1075.54 85.76Z" fill="none" stroke="#cc79a7" stroke-width="1.382" stroke-linecap="round" stroke-linejoin="round"/>
<path d="M1095.54 74.24L1107.06 74.24L1107.06 85.76L1095.54 85.76Z" fill="none" stroke="#56b4e9" stroke-width="1.382" stroke-linecap="round" stroke-linejoin="round"/>
<path d="M995.54 90.24L1007.06 90.24L1007.06 101.76L995.54 101.76Z" fill="#0072b2"/>
<path d="M1015.54 90.24L1027.06 90.24L1027.06 101.76L1015.54 101.76Z" fill="#e69f00"/>
<path d="M1035.54 90.24L1047.06 90.24L1047.06 101.76L1035.54 101.76Z" fill="none" stroke="#009e73" stroke-width="1.382" stroke-linecap="round" stroke-linejoin="round"/>
<path d="M1055.54 90.24L1067.06 90.24L1067.06 101.76L1055.54 101.76Z" fill="none" stroke="#d55e00" stroke-width="1.382" stroke-linecap="round" stroke-linejoin="round"/>
<path d="M1075.54 90.24L1087.06 90.24L1087.06 101.76L1075.54 101.76Z" fill="#cc79a7"/>
<path d="M1095.54 90.24L1107.06 90.24L1107.06 101.76L1095.54 101.76Z" fill="#56b4e9"/>
<path d="M1015.54 106.24L1027.06 106.24L1027.06 117.76L1015.54 117.76Z" fill="none" stroke="#e69f00" stroke-width="1.382" stroke-linecap="round" stroke-linejoin="round"/>
<path d="M1055.54 106.24L1067.06 106.24L1067.06 117.76L1055.54 117.76Z" fill="none" stroke="#d55e00" stroke-width="1.382" stroke-linecap="round" stroke-linejoin="round"/>
<path d="M1075.54 106.24L1087.06 106.24L1087.06 117.76L1075.54 117.76Z" fill="none" stroke="#cc79a7" stroke-width="1.382" stroke-linecap="round" stroke-linejoin="round"/>
<path d="M1095.54 106.24L1107.06 106.24L1107.06 117.76L1095.54 117.76Z" fill="#56b4e9"/>
<path d="M995.54 122.24L1007.06 122.24L1007.06 133.76L995.54 133.76Z" fill="#0072b2"/>
<path d="M1015.54 122.24L1027.06 122.24L1027.06 133.76L1015.54 133.76Z" fill="none" stroke="#e69f00" stroke-width="1.382" stroke-linecap="round" stroke-linejoin="round"/>
<path d="M1055.54 122.24L1067.06 122.24L1067.06 133.76L1055.54 133.76Z" fill="none" stroke="#d55e00" stroke-width="1.382" stroke-linecap="round" stroke-linejoin="round"/>
<path d="M1075.54 122.24L1087.06 122.24L1087.06 133.76L1075.54 133.76Z" fill="#cc79a7"/>
<path d="M1095.54 122.24L1107.06 122.24L1107.06 133.76L1095.54 133.76Z" fill="none" stroke="#56b4e9" stroke-width="1.382" stroke-linecap="round" stroke-linejoin="round"/>
<path d="M995.54 138.24L1007.06 138.24L1007.06 149.76L995.54 149.76Z" fill="#0072b2"/>
<path d="M1015.54 138.24L1027.06 138.24L1027.06 149.76L1015.54 149.76Z" fill="none" stroke="#e69f00" stroke-width="1.382" stroke-linecap="round" stroke-linejoin="round"/>
<path d="M1095.54 138.24L1107.06 138.24L1107.06 149.76L1095.54 149.76Z" fill="#56b4e9"/>
<path d="M995.54 154.24L1007.06 154.24L1007.06 165.76L995.54 165.76Z" fill="#0072b2"/>
<path d="M1015.54 154.24L1027.06 154.24L1027.06 165.76L1015.54 165.76Z" fill="none" stroke="#e69f00" stroke-width="1.382" stroke-linecap="round" stroke-linejoin="round"/>
<path d="M1035.54 154.24L1047.06 154.24L1047.06 165.76L1035.54 165.76Z" fill="none" stroke="#009e73" stroke-width="1.382" stroke-linecap="round" stroke-linejoin="round"/>
<path d="M1055.54 154.24L1067.06 154.24L1067.06 165.76L1055.54 165.76Z" fill="none" stroke="#d55e00" stroke-width="1.382" stroke-linecap="round" stroke-linejoin="round"/>
<path d="M1075.54 154.24L1087.06 154.24L1087.06 165.76L1075.54 165.76Z" fill="#cc79a7"/>
<path d="M1095.54 154.24L1107.06 154.24L1107.06 165.76L1095.54 165.76Z" fill="none" stroke="#56b4e9" stroke-width="1.382" stroke-linecap="round" stroke-linejoin="round"/>
<path d="M995.54 170.24L1007.06 170.24L1007.06 181.76L995.54 181.76Z" fill="#0072b2"/>
<path d="M1015.54 170.24L1027.06 170.24L1027.06 181.76L1015.54 181.76Z" fill="#e69f00"/>
<path d="M1035.54 170.24L1047.06 170.24L1047.06 181.76L1035.54 181.76Z" fill="none" stroke="#009e73" stroke-width="1.382" stroke-linecap="round" stroke-linejoin="round"/>
<path d="M1055.54 170.24L1067.06 170.24L1067.06 181.76L1055.54 181.76Z" fill="none" stroke="#d55e00" stroke-width="1.382" stroke-linecap="round" stroke-linejoin="round"/>
<path d="M1095.54 170.24L1107.06 170.24L1107.06 181.76L1095.54 181.76Z" fill="none" stroke="#56b4e9" stroke-width="1.382" stroke-linecap="round" stroke-linejoin="round"/>
<path d="M995.54 186.24L1007.06 186.24L1007.06 197.76L995.54 197.76Z" fill="none" stroke="#0072b2" stroke-width="1.382" stroke-linecap="round" stroke-linejoin="round"/>
<path d="M1015.54 186.24L1027.06 186.24L1027.06 197.76L1015.54 197.76Z" fill="none" stroke="#e69f00" stroke-width="1.382" stroke-linecap="round" stroke-linejoin="round"/>
<path d="M1075.54 186.24L1087.06 186.24L1087.06 197.76L1075.54 197.76Z" fill="#cc79a7"/>
<path d="M1095.54 186.24L1107.06 186.24L1107.06 197.76L1095.54 197.76Z" fill="none" stroke="#56b4e9" stroke-width="1.382" stroke-linecap="round" stroke-linejoin="round"/>
<path d="M995.54 202.24L1007.06 202.24L1007.06 213.76L995.54 213.76Z" fill="#0072b2"/>
<path d="M1015.54 202.24L1027.06 202.24L1027.06 213.76L1015.54 213.76Z" fill="#e69f00"/>
<path d="M1035.54 202.24L1047.06 202.24L1047.06 213.76L1035.54 213.76Z" fill="none" stroke="#009e73" stroke-width="1.382" stroke-linecap="round" stroke-linejoin="round"/>
<path d="M1055.54 202.24L1067.06 202.24L1067.06 213.76L1055.54 213.76Z" fill="none" stroke="#d55e00" stroke-width="1.382" stroke-linecap="round" stroke-linejoin="round"/>
<path d="M1075.54 202.24L1087.06 202.24L1087.06 213.76L1075.54 213.76Z" fill="none" stroke="#cc79a7" stroke-width="1.382" stroke-linecap="round" stroke-linejoin="round"/>
<path d="M995.54 218.24L1007.06 218.24L1007.06 229.76L995.54 229.76Z" fill="#0072b2"/>
<path d="M1015.54 218.24L1027.06 218.24L1027.06 229.76L1015.54 229.76Z" fill="none" stroke="#e69f00" stroke-width="1.382" stroke-linecap="round" stroke-linejoin="round"/>
<path d="M1055.54 218.24L1067.06 218.24L1067.06 229.76L1055.54 229.76Z" fill="#d55e00"/>
<path d="M1075.54 218.24L1087.06 218.24L1087.06 229.76L1075.54 229.76Z" fill="none" stroke="#cc79a7" stroke-width="1.382" stroke-linecap="round" stroke-linejoin="round"/>
<path d="M1095.54 218.24L1107.06 218.24L1107.06 229.76L1095.54 229.76Z" fill="#56b4e9"/>
<path d="M1015.54 234.24L1027.06 234.24L1027.06 245.76L1015.54 245.76Z" fill="#e69f00"/>
<path d="M1035.54 234.24L1047.06 234.24L1047.06 245.76L1035.54 245.76Z" fill="#009e73"/>
<path d="M1055.54 234.24L1067.06 234.24L1067.06 245.76L1055.54 245.76Z" fill="none" stroke="#d55e00" stroke-width="1.382" stroke-linecap="round" stroke-linejoin="round"/>
<path d="M1075.54 234.24L1087.06 234.24L1087.06 245.76L1075.54 245.76Z" fill="none" stroke="#cc79a7" stroke-width="1.382" stroke-linecap="round" stroke-linejoin="round"/>
<path d="M1095.54 234.24L1107.06 234.24L1107.06 245.76L1095.54 245.76Z" fill="none" stroke="#56b4e9" stroke-width="1.382" stroke-linecap="round" stroke-linejoin="round"/>
<path d="M995.54 250.24L1007.06 250.24L1007.06 261.76L995.54 261.76Z" fill="#0072b2"/>
<path d="M1015.54 250.24L1027.06 250.24L1027.06 261.76L1015.54 261.76Z" fill="#e69f00"/>
<path d="M1015.54 266.24L1027.06 266.24L1027.06 277.76L1015.54 277.76Z" fill="#e69f00"/>
<path d="M1035.54 266.24L1047.06 266.24L1047.06 277.76L1035.54 277.76Z" fill="#009e73"/>
<path d="M1055.54 266.24L1067.06 266.24L1067.06 277.76L1055.54 277.76Z" fill="#d55e00"/>
<path d="M1075.54 266.24L1087.06 266.24L1087.06 277.76L1075.54 277.76Z" fill="#cc79a7"/>
<path d="M1095.54 266.24L1107.06 266.24L1107.06 277.76L1095.54 277.76Z" fill="none" stroke="#56b4e9" stroke-width="1.382" stroke-linecap="round" stroke-linejoin="round"/>
<path d="M995.54 282.24L1007.06 282.24L1007.06 293.76L995.54 293.76Z" fill="none" stroke="#0072b2" stroke-width="1.382" stroke-linecap="round" stroke-linejoin="round"/>
<path d="M1015.54 282.24L1027.06 282.24L1027.06 293.76L1015.54 293.76Z" fill="#e69f00"/>
<path d="M1035.54 282.24L1047.06 282.24L1047.06 293.76L1035.54 293.76Z" fill="none" stroke="#009e73" stroke-width="1.382" stroke-linecap="round" stroke-linejoin="round"/>
<path d="M1055.54 282.24L1067.06 282.24L1067.06 293.76L1055.54 293.76Z" fill="none" stroke="#d55e00" stroke-width="1.382" stroke-linecap="round" stroke-linejoin="round"/>
<path d="M1095.54 282.24L1107.06 282.24L1107.06 293.76L1095.54 293.76Z" fill="none" stroke="#56b4e9" stroke-width="1.382" stroke-linecap="round" stroke-linejoin="round"/>
<path d="M995.54 298.24L1007.06 298.24L1007.06 309.76L995.54 309.76Z" fill="#0072b2"/>
<path d="M1015.54 298.24L1027.06 298.24L1027.06 309.76L1015.54 309.76Z" fill="none" stroke="#e69f00" stroke-width="1.382" stroke-linecap="round" stroke-linejoin="round"/>
<path d="M1035.54 298.24L1047.06 298.24L1047.06 309.76L1035.54 309.76Z" fill="none" stroke="#009e73" stroke-width="1.382" stroke-linecap="round" stroke-linejoin="round"/>
<path d="M1055.54 298.24L1067.06 298.24L1067.06 309.76L1055.54 309.76Z" fill="#d55e00"/>
<path d="M1075.54 298.24L1087.06 298.24L1087.06 309.76L1075.54 309.76Z" fill="none" stroke="#cc79a7" stroke-width="1.382" stroke-linecap="round" stroke-linejoin="round"/>
<path d="M995.54 314.24L1007.06 314.24L1007.06 325.76L995.54 325.76Z" fill="#0072b2"/>
<path d="M1035.54 314.24L1047.06 314.24L1047.06 325.76L1035.54 325.76Z" fill="#009e73"/>
<path d="M1055.54 314.24L1067.06 314.24L1067.06 325.76L1055.54 325.76Z" fill="#d55e00"/>
<path d="M1075.54 314.24L1087.06 314.24L1087.06 325.76L1075.54 325.76Z" fill="none" stroke="#cc79a7" stroke-width="1.382" stroke-linecap="round" stroke-linejoin="round"/>
<path d="M1095.54 314.24L1107.06 314.24L1107.06 325.76L1095.54 325.76Z" fill="#56b4e9"/>
<path d="M1015.54 330.24L1027.06 330.24L1027.06 341.76L1015.54 341.76Z" fill="#e69f00"/>
<path d="M1035.54 330.24L1047.06 330.24L1047.06 341.76L1035.54 341.76Z" fill="#009e73"/>
<path d="M1055.54 330.24L1067.06 330.24L1067.06 341.76L1055.54 341.76Z" fill="#d55e00"/>
<path d="M1075.54 330.24L1087.06 330.24L1087.06 341.76L1075.54 341.76Z" fill="#cc79a7"/>
<path d="M1015.54 346.24L1027.06 346.24L1027.06 357.76L1015.54 357.76Z" fill="none" stroke="#e69f00" stroke-width="1.382" stroke-linecap="round" stroke-linejoin="round"/>
<path d="M1035.54 346.24L1047.06 346.24L1047.06 357.76L1035.54 357.76Z" fill="none" stroke="#009e73" stroke-width="1.382" stroke-linecap="round" stroke-linejoin="round"/>
<path d="M1055.54 346.24L1067.06 346.24L1067.06 357.76L1055.54 357.76Z" fill="#d55e00"/>
<path d="M1095.54 346.24L1107.06 346.24L1107.06 357.76L1095.54 357.76Z" fill="#56b4e9"/>
<path d="M995.54 362.24L1007.06 362.24L1007.06 373.76L995.54 373.76Z" fill="none" stroke="#0072b2" stroke-width="1.382" stroke-linecap="round" stroke-linejoin="round"/>
<path d="M1015.54 362.24L1027.06 362.24L1027.06 373.76L1015.54 373.76Z" fill="#e69f00"/>
<path d="M1035.54 362.24L1047.06 362.24L1047.06 373.76L1035.54 373.76Z" fill="#009e73"/>
<path d="M1055.54 362.24L1067.06 362.24L1067.06 373.76L1055.54 373.76Z" fill="none" stroke="#d55e00" stroke-width="1.382" stroke-linecap="round" stroke-linejoin="round"/>
<path d="M1075.54 362.24L1087.06 362.24L1087.06 373.76L1075.54 373.76Z" fill="#cc79a7"/>
<path d="M1095.54 362.24L1107.06 362.24L1107.06 373.76L1095.54 373.76Z" fill="#56b4e9"/>
<path d="M995.54 378.24L1007.06 378.24L1007.06 389.76L995.54 389.76Z" fill="none" stroke="#0072b2" stroke-width="1.382" stroke-linecap="round" stroke-linejoin="round"/>
<path d="M1015.54 378.24L1027.06 378.24L1027.06 389.76L1015.54 389.76Z" fill="#e69f00"/>
<path d="M1035.54 378.24L1047.06 378.24L1047.06 389.76L1035.54 389.76Z" fill="none" stroke="#009e73" stroke-width="1.382" stroke-linecap="round" stroke-linejoin="round"/>
<path d="M1055.54 378.24L1067.06 378.24L1067.06 389.76L1055.54 389.76Z" fill="none" stroke="#d55e00" stroke-width="1.382" stroke-linecap="round" stroke-linejoin="round"/>
<path d="M1075.54 378.24L1087.06 378.24L1087.06 389.76L1075.54 389.76Z" fill="#cc79a7"/>
<path d="M1095.54 378.24L1107.06 378.24L1107.06 389.76L1095.54 389.76Z" fill="#56b4e9"/>
<path d="M995.54 394.24L1007.06 394.24L1007.06 405.76L995.54 405.76Z" fill="none" stroke="#0072b2" stroke-width="1.382" stroke-linecap="round" stroke-linejoin="round"/>
<path d="M1015.54 394.24L1027.06 394.24L1027.06 405.76L1015.54 405.76Z" fill="none" stroke="#e69f00" stroke-width="1.382" stroke-linecap="round" stroke-linejoin="round"/>
<path d="M1055.54 394.24L1067.06 394.24L1067.06 405.76L1055.54 405.76Z" fill="#d55e00"/>
<path d="M1075.54 394.24L1087.06 394.24L1087.06 405.76L1075.54 405.76Z" fill="none" stroke="#cc79a7" stroke-width="1.382" stroke-linecap="round" stroke-linejoin="round"/>
<text x="1001.3" y="19.2" transform="rotate(-90 1001.3 19.2)" font-family="Inter, Segoe UI, DejaVu Sans, sans-serif" font-size="10" dominant-baseline="central" fill="#71717a">ampC</text>
<text x="1021.3" y="19.2" transform="rotate(-90 1021.3 19.2)" font-family="Inter, Segoe UI, DejaVu Sans, sans-serif" font-size="10" dominant-baseline="central" fill="#71717a">blaZ</text>
<text x="1041.3" y="19.2" transform="rotate(-90 1041.3 19.2)" font-family="Inter, Segoe UI, DejaVu Sans, sans-serif" font-size="10" dominant-baseline="central" fill="#71717a">mecA</text>
<text x="1061.3" y="19.2" transform="rotate(-90 1061.3 19.2)" font-family="Inter, Segoe UI, DejaVu Sans, sans-serif" font-size="10" dominant-baseline="central" fill="#71717a">tetK</text>
<text x="1081.3" y="19.2" transform="rotate(-90 1081.3 19.2)" font-family="Inter, Segoe UI, DejaVu Sans, sans-serif" font-size="10" dominant-baseline="central" fill="#71717a">ermB</text>
<text x="1101.3" y="19.2" transform="rotate(-90 1101.3 19.2)" font-family="Inter, Segoe UI, DejaVu Sans, sans-serif" font-size="10" dominant-baseline="central" fill="#71717a">vanA</text>
<text x="1051.3" y="-15.5" font-family="Inter, Segoe UI, DejaVu Sans, sans-serif" font-size="10" text-anchor="middle" dominant-baseline="central" fill="#71717a">Resistance genes</text>
</g>
</g>
<g class="makeyourtree-labels">
<g transform="translate(0.6 44.6)">
<text x="290.307" y="32" font-family="Inter, Segoe UI, DejaVu Sans, sans-serif" font-size="11" dominant-baseline="central" fill="#18181b">strain_02</text>
<text x="844.264" y="48" font-family="Inter, Segoe UI, DejaVu Sans, sans-serif" font-size="11" dominant-baseline="central" fill="#18181b">strain_08</text>
<text x="852.824" y="64" font-family="Inter, Segoe UI, DejaVu Sans, sans-serif" font-size="11" dominant-baseline="central" fill="#18181b">strain_22</text>
<text x="898.178" y="80" font-family="Inter, Segoe UI, DejaVu Sans, sans-serif" font-size="11" dominant-baseline="central" fill="#18181b">strain_20</text>
<text x="926.848" y="96" font-family="Inter, Segoe UI, DejaVu Sans, sans-serif" font-size="11" dominant-baseline="central" fill="#18181b">strain_05</text>
<text x="930" y="112" font-family="Inter, Segoe UI, DejaVu Sans, sans-serif" font-size="11" dominant-baseline="central" fill="#18181b">strain_19</text>
<text x="169.651" y="128" font-family="Inter, Segoe UI, DejaVu Sans, sans-serif" font-size="11" dominant-baseline="central" fill="#18181b">strain_12</text>
<text x="321.748" y="144" font-family="Inter, Segoe UI, DejaVu Sans, sans-serif" font-size="11" dominant-baseline="central" fill="#18181b">strain_01</text>
<text x="687.683" y="160" font-family="Inter, Segoe UI, DejaVu Sans, sans-serif" font-size="11" dominant-baseline="central" fill="#18181b">strain_21</text>
<text x="596.403" y="176" font-family="Inter, Segoe UI, DejaVu Sans, sans-serif" font-size="11" dominant-baseline="central" fill="#18181b">strain_03</text>
<text x="626.975" y="192" font-family="Inter, Segoe UI, DejaVu Sans, sans-serif" font-size="11" dominant-baseline="central" fill="#18181b">strain_14</text>
<text x="579.011" y="208" font-family="Inter, Segoe UI, DejaVu Sans, sans-serif" font-size="11" dominant-baseline="central" fill="#18181b">strain_24</text>
<text x="339.004" y="224" font-family="Inter, Segoe UI, DejaVu Sans, sans-serif" font-size="11" dominant-baseline="central" fill="#18181b">strain_10</text>
<text x="408.517" y="240" font-family="Inter, Segoe UI, DejaVu Sans, sans-serif" font-size="11" dominant-baseline="central" fill="#18181b">strain_18</text>
<text x="312.753" y="256" font-family="Inter, Segoe UI, DejaVu Sans, sans-serif" font-size="11" dominant-baseline="central" fill="#18181b">strain_15</text>
<text x="625.344" y="272" font-family="Inter, Segoe UI, DejaVu Sans, sans-serif" font-size="11" dominant-baseline="central" fill="#18181b">strain_06</text>
<text x="768.881" y="288" font-family="Inter, Segoe UI, DejaVu Sans, sans-serif" font-size="11" dominant-baseline="central" fill="#18181b">strain_09</text>
<text x="833.992" y="304" font-family="Inter, Segoe UI, DejaVu Sans, sans-serif" font-size="11" dominant-baseline="central" fill="#18181b">strain_23</text>
<text x="534.798" y="320" font-family="Inter, Segoe UI, DejaVu Sans, sans-serif" font-size="11" dominant-baseline="central" fill="#18181b">strain_07</text>
<text x="342.319" y="336" font-family="Inter, Segoe UI, DejaVu Sans, sans-serif" font-size="11" dominant-baseline="central" fill="#18181b">strain_11</text>
<text x="342.401" y="352" font-family="Inter, Segoe UI, DejaVu Sans, sans-serif" font-size="11" dominant-baseline="central" fill="#18181b">strain_04</text>
<text x="271.149" y="368" font-family="Inter, Segoe UI, DejaVu Sans, sans-serif" font-size="11" dominant-baseline="central" fill="#18181b">strain_16</text>
<text x="281.339" y="384" font-family="Inter, Segoe UI, DejaVu Sans, sans-serif" font-size="11" dominant-baseline="central" fill="#18181b">strain_13</text>
<text x="146.444" y="400" font-family="Inter, Segoe UI, DejaVu Sans, sans-serif" font-size="11" dominant-baseline="central" fill="#18181b">strain_17</text>
</g>
</g>
<g class="makeyourtree-decor">
<g transform="translate(0.6 44.6)">
<path d="M24 426L159.874 426M24 422.4L24 429.6M159.874 422.4L159.874 429.6" fill="none" stroke="#52525b" stroke-width="1"/>
<text x="91.937" y="437.7" font-family="Inter, Segoe UI, DejaVu Sans, sans-serif" font-size="9" text-anchor="middle" dominant-baseline="central" fill="#52525b">0.5</text>
</g>
</g>
<g class="makeyourtree-legend">
<g transform="translate(0.6 44.6)">
<text x="1121.751" y="-14" font-family="Inter, Segoe UI, DejaVu Sans, sans-serif" font-size="10" font-weight="600" dominant-baseline="central" fill="#18181b">Resistance genes</text>
<rect x="1121.751" y="-6.8" width="12" height="12" rx="1.8" fill="#0072b2"/>
<text x="1139.751" y="-0.8" font-family="Inter, Segoe UI, DejaVu Sans, sans-serif" font-size="10" dominant-baseline="central" fill="#18181b">ampC</text>
<rect x="1121.751" y="6.4" width="12" height="12" rx="1.8" fill="#e69f00"/>
<text x="1139.751" y="12.4" font-family="Inter, Segoe UI, DejaVu Sans, sans-serif" font-size="10" dominant-baseline="central" fill="#18181b">blaZ</text>
<rect x="1121.751" y="19.6" width="12" height="12" rx="1.8" fill="#009e73"/>
<text x="1139.751" y="25.6" font-family="Inter, Segoe UI, DejaVu Sans, sans-serif" font-size="10" dominant-baseline="central" fill="#18181b">mecA</text>
<rect x="1121.751" y="32.8" width="12" height="12" rx="1.8" fill="#d55e00"/>
<text x="1139.751" y="38.8" font-family="Inter, Segoe UI, DejaVu Sans, sans-serif" font-size="10" dominant-baseline="central" fill="#18181b">tetK</text>
<rect x="1121.751" y="46" width="12" height="12" rx="1.8" fill="#cc79a7"/>
<text x="1139.751" y="52" font-family="Inter, Segoe UI, DejaVu Sans, sans-serif" font-size="10" dominant-baseline="central" fill="#18181b">ermB</text>
<rect x="1121.751" y="59.2" width="12" height="12" rx="1.8" fill="#56b4e9"/>
<text x="1139.751" y="65.2" font-family="Inter, Segoe UI, DejaVu Sans, sans-serif" font-size="10" dominant-baseline="central" fill="#18181b">vanA</text>
</g>
</g>
</svg>
